<svg width="128" height="122" viewBox="0 0 128 122" fill="none" xmlns="http://www.w3.org/2000/svg">
<path fill-rule="evenodd" clip-rule="evenodd" d="M92.0937 44.2014C92.3235 42.0615 89.8247 36.3526 89.885 37.5106C85.879 31.3183 78.0611 28.8831 71.3158 26.8389C56.9966 22.1 45.815 27.8232 35.7542 37.9665C29.8145 43.5286 24.1628 49.7417 21.1811 57.4414C15.3154 72.1298 24.1078 88.8785 37.4787 95.8953C38.5577 96.4807 39.7335 97.0366 40.761 97.7438C46.2883 100.945 52.7789 102.053 58.9381 103.446C70.4607 106.086 84.9322 104.828 91.7228 93.8302C96.3286 86.025 95.105 76.5631 94.7445 67.9011C94.2029 60.3117 93.2521 51.7352 92.0937 44.2014Z" fill="#D08B5B"/>
<path fill-rule="evenodd" clip-rule="evenodd" d="M30.503 22.5412C37.9682 15.5451 49.002 12.1542 59.0902 12.7473C64.5541 13.0685 69.82 14.441 74.7579 16.7991C76.3021 17.5365 77.807 18.3996 79.1946 19.416C80.1307 19.8539 81.0458 20.3278 81.9323 20.843C86.3722 23.4215 89.8044 27.3271 92.0012 31.9599C93.0498 34.1711 93.8774 36.5028 94.346 38.9053L94.4215 39.3008C94.6606 40.5064 95.1333 42.0948 94.5353 43.2229C94.1389 43.9709 93.3083 44.4424 92.5219 44.379C92.6927 45.0722 92.8972 45.7653 93.0279 46.4629L93.3839 48.3651C93.443 48.6821 93.5015 48.9991 93.5592 49.3162C93.9028 51.2056 94.219 53.0928 94.472 54.997C95.0012 58.9622 95.4797 62.9356 95.9014 66.9153C96.2036 69.7615 96.4867 72.6106 96.7618 75.459L96.926 77.1679C97.2085 80.1097 97.4298 83.0773 97.2378 86.0319C96.9488 90.4642 95.589 94.5079 92.9497 97.7976C93.2012 98.404 93.2859 99.0866 93.4752 99.8405C93.7373 100.884 94.0786 101.905 94.4419 102.918C94.6118 103.316 94.7821 103.714 94.9506 104.113L95.3935 105.17V105.17L95.7392 105.863C96.1136 106.617 96.4758 107.382 96.7059 108.162C98.1972 108.96 99.4152 110.263 99.4748 112.047C99.5275 113.66 98.6927 115.367 97.2823 116.189C95.8906 117.002 94.4579 116.682 93.1253 116.062C91.9634 116.401 90.7198 116.444 89.5689 116.081C88.6828 116.885 87.54 117.441 86.2732 117.591C84.3633 117.818 82.55 117.282 80.798 116.577L80.6758 116.528C80.621 116.506 80.5662 116.483 80.5135 116.46C78.498 116.363 76.491 115.564 75.0614 114.148C74.5957 113.689 74.1931 113.165 73.8684 112.578C72.6897 110.441 72.5065 107.818 73.666 105.698C73.4172 105.709 73.1664 105.719 72.9176 105.726C69.6004 105.82 66.2773 105.651 62.9686 105.432L62.1885 105.379C60.0475 105.224 56.8899 104.861 56.8298 102.2C56.8211 101.86 57.1713 101.604 57.4918 101.695C58.7082 102.039 59.9036 102.581 61.1643 102.775C62.8129 103.031 64.5203 103.058 66.186 103.151L66.665 103.178C70.0238 103.362 73.5029 103.475 76.8073 102.807C79.2737 102.31 81.8438 101.405 84.1038 100.285C86.2732 99.2075 88.2443 97.7978 89.8339 95.9569C93.3357 91.9075 93.7995 86.1947 93.6287 81.0715C93.4221 74.9527 92.7051 68.8428 92.3005 62.7327L92.1175 59.9877C91.9665 57.6987 91.8286 55.4064 91.7714 53.1162C91.7292 51.4445 91.7564 49.7684 91.7649 48.0967C91.7691 47.2618 91.7587 46.4228 91.7777 45.5879C91.7883 45.1187 91.8431 44.6601 91.8831 44.2013C91.6976 44.1043 91.5247 43.9688 91.3687 43.7893C91.2464 43.6477 91.1516 43.4977 91.0862 43.3455C90.2998 43.1149 89.9351 42.8085 89.4249 42.1133C88.9949 41.5279 88.5079 40.9868 87.9871 40.4796C86.8782 39.4017 85.6112 38.5204 84.2722 37.753C81.5044 36.1659 78.4727 35.105 75.4158 34.2342C70.7354 32.9027 65.874 32.2179 61.1242 31.1483C59.815 32.9786 58.4278 34.7541 56.9774 36.4724C52.4508 41.8322 47.2606 46.6107 41.6989 50.8717C40.567 51.7403 39.4199 52.5963 38.2564 53.4267C36.7234 55.7698 35.1744 58.1017 33.6021 60.4179L32.9268 61.4096L32.9163 61.4286C32.8235 61.5702 32.7347 61.7119 32.6464 61.8535C32.4588 62.1536 32.2479 62.4431 32.0245 62.7242C31.879 62.9375 31.7314 63.1509 31.5817 63.3646C31.8685 63.5187 32.1299 63.6922 32.3344 63.8845C32.7518 64.2795 32.682 64.9075 32.3344 65.309C31.2128 66.6067 29.4377 64.9159 28.1475 64.4657C26.7497 64.8925 25.5839 66.5602 25.0041 67.8345C24.1693 69.6713 23.834 71.886 24.2114 73.8748C24.557 75.6925 25.489 77.263 27.0385 78.2479C27.0934 78.2815 27.1522 78.3176 27.2093 78.3491C27.2114 78.3536 27.2114 78.3536 27.2135 78.3512C27.2662 78.3851 27.321 78.417 27.3759 78.4466C28.1032 78.8481 28.9022 79.0848 29.7305 79.1417C30.2049 79.1757 30.7005 79.1502 31.1749 79.2074C31.6619 79.2643 32.0624 79.4885 32.5304 79.6069C33.047 79.7398 33.3801 80.4354 33.0552 80.9022C32.8952 81.1326 32.7434 81.3526 32.5808 81.5492C33.1144 82.179 33.578 82.8744 33.9978 83.5357C34.571 84.4424 35.0793 85.4042 35.5431 86.3849C35.9711 86.9492 36.3801 87.5241 36.7764 88.1116C39.0217 91.4467 40.7398 95.1623 41.7961 99.0446C42.8417 102.885 43.4953 107.198 42.5276 111.119C41.6358 114.725 39.0322 117.711 35.1784 117.904C34.3741 117.943 33.5831 117.853 32.8393 117.648C31.2054 118.66 29.1807 119.169 27.3687 119.229C25.9026 119.277 24.2979 118.967 23.1006 118.079C21.6803 118.698 20.1396 119.05 18.7998 119.13C17.3007 119.22 15.7317 118.81 14.5096 117.999C13.3467 118.998 12.0919 119.84 10.6661 120.419C8.21425 121.412 5.29648 121.289 3.05123 119.804C0.801758 118.316 -0.343005 115.644 0.344274 112.994C0.97674 110.551 2.96479 108.758 4.83267 107.215L5.20174 106.912C7.04934 105.4 8.91524 103.937 10.1011 101.807C11.3597 99.5478 11.8193 96.9228 11.9437 94.3655C12.2135 88.7351 11.0709 83.1554 10.723 77.5547C10.3646 71.77 10.5649 65.9682 11.3513 60.2258C12.8797 49.071 16.9022 38.1357 24.1798 29.4406C25.2326 28.1824 26.3597 26.9832 27.5475 25.8466C28.4553 24.6562 29.4364 23.5405 30.503 22.5412ZM127.308 86.2327C127.348 86.2348 127.386 86.2369 127.421 86.2517C127.445 86.2619 127.466 86.2781 127.484 86.2958L127.662 86.4736C127.725 86.537 127.721 86.6343 127.662 86.6977C127.61 86.7553 127.516 86.7571 127.455 86.7124L127.438 86.6977L127.255 86.5134C127.234 86.4916 127.217 86.468 127.208 86.4377C127.2 86.4081 127.2 86.3743 127.198 86.3426C127.196 86.2855 127.251 86.2327 127.308 86.2327ZM28.3947 68.9654C30.0855 68.4516 32.1136 69.6734 33.1213 70.9626C33.6273 71.6094 33.7707 72.4949 33.1213 73.1311C32.569 73.6722 31.4896 73.7713 30.9562 73.1311C30.3511 72.4019 29.8578 71.3915 28.9934 70.9246C28.0553 70.4174 26.7988 70.5442 26.5774 71.7804C26.5395 71.9898 26.2401 71.9199 26.2275 71.732C26.1452 70.4808 27.2394 69.3139 28.3947 68.9654Z" fill="black"/>
<path fill-rule="evenodd" clip-rule="evenodd" d="M73.5604 90.2309C72.1402 89.6513 70.8731 88.6845 69.9466 87.4494C69.6245 87.0201 69.541 86.5667 69.6086 86.152C69.6846 85.6857 69.9603 85.2632 70.3364 84.9797C70.7136 84.6953 71.1855 84.5551 71.6416 84.6266C72.0381 84.6887 72.4326 84.9058 72.7449 85.3561L72.8102 85.4462C73.361 86.1916 74.0787 86.8032 74.8965 87.1974C75.6847 87.5774 76.5662 87.7548 77.4785 87.6516C79.2159 87.4553 80.4134 86.5153 81.6862 85.2388C81.844 85.0777 82.0019 84.9114 82.1605 84.7426C82.2607 84.5895 82.3997 84.4911 82.5541 84.4394C82.7255 84.3821 82.9194 84.3854 83.097 84.4474C83.2682 84.5071 83.4213 84.6205 83.524 84.7713C83.6216 84.9146 83.6769 85.0917 83.659 85.2953C83.5425 86.6182 82.8511 87.7988 81.8691 88.7258C80.7784 89.7554 79.3327 90.4677 77.9716 90.7175C76.472 90.9927 74.944 90.7955 73.5604 90.2309V90.2309ZM78.6793 69.823C80.2747 70.7931 82.7055 73.0552 80.9893 75.4603C78.9691 77.5808 76.0605 75.1494 74.6272 74.0498C73.2982 73.1976 71.8049 75.3894 73.038 76.3845C83.3951 84.0556 87.5983 70.0767 79.4862 68.6824C78.5931 68.5288 78.2613 69.5229 78.6793 69.823ZM60.119 60.8997C60.2952 58.7109 63.6275 58.2138 63.959 60.3797C64.2558 62.3199 63.9064 64.1022 63.0328 65.8491C62.1981 67.5179 60.1001 66.7393 59.9414 65.2197C59.7287 63.1827 60.0093 62.2612 60.119 60.8997ZM85.485 59.9307C85.9496 59.322 86.6203 58.9065 87.424 59.1413C89.9349 59.8753 89.1948 63.4414 88.313 65.1772C87.8338 66.1198 86.285 66.3589 85.5851 65.5289C84.4443 64.1754 83.8979 61.4725 85.3483 60.1393C85.3876 60.0704 85.4313 60.0008 85.485 59.9307ZM62.9975 51.3221L63.3941 51.2527C64.6211 51.0404 66.1467 50.8364 67.0147 51.8233C67.4751 52.3466 67.6335 53.3192 67.0147 53.8201C65.9263 54.7014 64.7229 54.3599 63.4185 54.4345C62.3436 54.4962 61.3105 54.6742 60.2751 54.9703C58.0035 55.6197 56.1526 56.8054 54.2126 58.1073C53.958 58.2781 53.6981 57.9524 53.8196 57.7142C54.9395 55.5198 57.1099 53.7172 59.2838 52.6184C60.4441 52.0319 61.7138 51.5453 62.9975 51.3221ZM83.1959 50.3391L83.4995 50.4013C86.8032 51.0921 91.0954 52.4721 92.6598 55.7183C92.7194 56.1773 92.6564 56.2757 92.6052 56.34L92.5882 56.3614C92.546 56.4163 92.5123 56.4919 92.3134 56.5544C92.2582 56.5412 92.2025 56.5273 92.1461 56.5125C91.429 56.3245 90.8617 56.0655 90.3124 55.7968L89.7168 55.5033C89.0259 55.1643 88.3288 54.8378 87.5901 54.5967C86.0136 54.0822 84.392 53.7199 82.7453 53.5264C82.3884 53.4845 82.0447 53.364 81.7736 53.1574C81.5162 52.9614 81.3196 52.69 81.2299 52.3292C81.1138 51.8623 81.1472 51.5089 81.3976 51.0877C81.5858 50.7714 81.8553 50.5521 82.1646 50.4262C82.48 50.2979 82.839 50.2676 83.1959 50.3391Z" fill="black"/>
</svg>
